# xmcd
# 
# Track frame offsets:
#     150
#     18948
#     34445
#     52453
#     73551
#     91806
#     110674
#     137436
#     160617
#     177744
#     191638
# 
# Disc length: 2740
# 
# Revision: 0
# Processed by: cddbd v1.5.2PL0 Copyright (c) Steve Scherf et al.
# Submitted via: BonkEnc v1.0
# 
DISCID=9b0ab20b
DTITLE=Kamelia Todorova - Feels like
DYEAR=2006
DGENRE=Jazz
TTITLE0=Call Me
TTITLE1=I Heard It Through the Grapevine
TTITLE2=Do Right
TTITLE3=Come Rain or Come Shine
TTITLE4=You and I
TTITLE5=I've Got the Music In Me
TTITLE6=Feel Like Makin Love
TTITLE7=Maybe Your Baby
TTITLE8=Spirit In the Dark
TTITLE9=You - Me
TTITLE10=Gee Baby
EXTD=YEAR: 2006
EXTT0=
EXTT1=
EXTT2=
EXTT3=
EXTT4=
EXTT5=
EXTT6=
EXTT7=
EXTT8=
EXTT9=
EXTT10=
PLAYORDER=
